<?xml version="1.0" encoding="UTF-8"?>
<svg id="Layer_1" data-name="Layer 1" xmlns="http://www.w3.org/2000/svg" viewBox="0 0 519.07 174.24">
  <defs>
    <style>
      .cls-1 {
        fill: none;
        stroke: #000;
        stroke-miterlimit: 10;
        stroke-width: 9px;
      }
    </style>
  </defs>
  <path d="M149.19,75.98c-3,14.25-18.91,26.34-33.59,29.49,9.3-6.86,14.87-16.45,14.06-28.07-.95-13.71-4.94-8.25-11.59-13.69-3-2.45-3.17-5.36-3.53-8.84-1.08-10.44-9.41-21.86-20.85-23.98,9.09-5.85,21.75-6.98,29.88-.42,2.69,2.18,4.04,5.07,4.26,8.44l.56,8.4c.85,12.88,10.96,9.44,17.2,15.2,3.69,3.41,4.64,8.49,3.6,13.45Z"/>
  <path d="M114.65,83.44c-.36,11.79-14.93,20.17-24.91,23-4.27,1.21-8.52-.24-10.51-4.08l-3.43-6.62c-4.8-9.27-13.85-5.23-15.44-15.59-.49-3.17-2.15-12.89,1.71-14.15.71-.23,2.28.62,2.71,1.39,4.43,7.86,11.65,13.31,20.38,15.48,11.79,2.92,15.3-5,23.12-7.93,4.19-1.57,6.44,5.85,6.36,8.5Z"/>
  <path d="M51.67,75.48c.14.71.02,1.85-.09,2.91-2.5-.96-4.55-2.36-6.39-4.57-10.53-12.66-14.56-35.76,2.64-44.4,10.41-5.23,23.09-4.8,33.87,1.1-8.16.47-14.6,2.48-20.07,7.97-5.89,5.92-9.17,13.6-10.38,22-.92,5.01-.58,9.92.41,15Z"/>
  <path d="M82.5,118.77c11.34,1.86,17.19-1.94,27.61-2.75-3.38,8.73-11.46,13-20.24,13.24-19.89.54-42.89-13.96-41.59-36.1.06-1.06,1.03-2.43,1.71-2.91,3.39-2.42,16.97,5.11,19.37,14.9,1.73,7.05,5.47,12.36,13.14,13.62Z"/>
  <path d="M47.05,115.95c-10.97,3.66-25.56-.24-27.68-12.13-2.5-14.04,9.54-19.57,7.62-23.66s-3.47-8.4-3.15-13.02c.26-3.66,1-7.36,4.18-10.16.97,8.56,3.58,15.89,8.97,22.22,2.51,2.94,2.98,6.86,1.44,10.42-3.76,8.68,1.69,20.06,8.62,26.34Z"/>
  <path d="M128.79,131.36l-21.88,10.62c4.34-14.36,13.11-24.7,26.21-31.15l10.74-5.29c3.95-1.94,6.63-4.6,9.37-8.65,3.19,11.07-.3,18.47-8.55,25.06-4.99,3.67-10.1,6.59-15.9,9.4Z"/>
  <path d="M90.31,142.49l6.02.67c-18.72,8.05-51.4,6.16-61.49-15.21,28.57-6.88,36.43,12.41,55.48,14.54Z"/>
  <path d="M107.93,67.04c-2.34,5.64-12.99,2.23-17.37-.67-1.64,2.29-3.26,4.78-6,4.89s-5.92-.7-7-3.68c-1.52-4.22.69-8.57,4.53-10.88,8.13-4.9,18.8-2.84,24.63,4.71,1.14,1.47,1.83,4.11,1.2,5.63Z"/>
  <path d="M98.39,47.97c-10.44-2.92-24.54,2.31-25.01,14.04-.02.62-.88,1.9-1.48,2.08-3.51,1.05-8.43-12.17.95-19.58,7.18-5.67,19.98-5.08,25.54,3.46Z"/>
  <circle class="cls-1" cx="87.12" cy="87.12" r="82.62"/>
  <g>
    <g>
      <path d="M218.46,50.03c2.18,0,4.15.19,5.92.58,1.77.39,3.29,1,4.56,1.84,1.27.84,2.25,1.93,2.93,3.27.68,1.34,1.02,2.99,1.02,4.94,0,3-.89,5.29-2.66,6.88-1.77,1.59-4.15,2.66-7.15,3.2l9.06,12.94c.32.45.69.73,1.12.82.43.09.83.14,1.19.14v1.23h-12.73v-1.23c.41,0,.76-.07,1.06-.2.29-.14.44-.32.44-.54s-.09-.49-.27-.78c-.18-.29-.45-.69-.82-1.19l-7.49-10.62h-9.74v12.12c0,.41.15.72.44.92s.83.31,1.6.31v1.23h-11.78v-1.23c1.32,0,1.97-.41,1.97-1.23v-30.92c0-.82-.66-1.23-1.97-1.23v-1.23h23.29ZM216.69,65.96c1.63,0,3-.12,4.09-.37,1.09-.25,1.95-.6,2.59-1.06.64-.45,1.09-.99,1.36-1.6s.41-1.28.41-2.01-.14-1.4-.41-2.01-.73-1.15-1.36-1.6c-.64-.45-1.5-.81-2.59-1.06-1.09-.25-2.45-.37-4.09-.37h-11.78v10.08h11.78Z"/>
      <path d="M259.67,55.48c2.5,0,4.85.32,7.05.95,2.2.64,4.12,1.59,5.75,2.86,1.63,1.27,2.93,2.87,3.88,4.8.95,1.93,1.43,4.19,1.43,6.78s-.48,4.85-1.43,6.78c-.95,1.93-2.25,3.53-3.88,4.8-1.63,1.27-3.55,2.19-5.75,2.76-2.2.57-4.55.85-7.05.85s-4.85-.28-7.05-.85c-2.2-.57-4.12-1.49-5.75-2.76-1.63-1.27-2.93-2.87-3.88-4.8-.95-1.93-1.43-4.19-1.43-6.78s.48-4.85,1.43-6.78c.95-1.93,2.25-3.53,3.88-4.8,1.63-1.27,3.55-2.22,5.75-2.86,2.2-.64,4.55-.95,7.05-.95ZM259.67,60.52c-1.45,0-2.87.24-4.26.72-1.39.48-2.62,1.16-3.71,2.04-1.09.89-1.97,1.96-2.62,3.23-.66,1.27-.99,2.72-.99,4.36s.33,3.09.99,4.36c.66,1.27,1.53,2.35,2.62,3.24,1.09.89,2.33,1.57,3.71,2.04,1.38.48,2.8.71,4.26.71s2.87-.24,4.26-.71c1.38-.48,2.62-1.16,3.71-2.04,1.09-.89,1.96-1.96,2.62-3.24.66-1.27.99-2.72.99-4.36s-.33-3.09-.99-4.36c-.66-1.27-1.53-2.35-2.62-3.23-1.09-.89-2.33-1.57-3.71-2.04-1.39-.48-2.8-.72-4.26-.72Z"/>
      <path d="M288.06,75.43c0,.18-.01.37-.03.58-.02.2-.03.42-.03.65,0,.68.43,1.31,1.29,1.87.86.57,1.89,1.04,3.1,1.43,1.2.39,2.41.69,3.61.92,1.2.23,2.15.34,2.83.34.64,0,1.42-.04,2.35-.14.93-.09,1.85-.28,2.76-.58.91-.3,1.68-.7,2.32-1.23.64-.52.95-1.21.95-2.08,0-1-.56-1.72-1.67-2.18-1.11-.45-2.51-.81-4.19-1.06-1.68-.25-3.5-.5-5.45-.75-1.95-.25-3.77-.66-5.45-1.23-1.68-.57-3.08-1.38-4.19-2.45-1.11-1.07-1.67-2.58-1.67-4.53,0-2.91,1.2-5.22,3.61-6.95,2.41-1.72,5.79-2.59,10.15-2.59,2.13,0,3.96.17,5.48.51,1.52.34,2.8.72,3.85,1.12,1.04.41,1.89.78,2.55,1.12.66.34,1.15.51,1.46.51.36,0,.64-.06.82-.17.18-.11.41-.24.68-.37l.75.75-3.4,6.4-1.23-.41c-.05-.27-.09-.54-.14-.82-.05-.27-.25-.54-.61-.82-.91-.77-2.32-1.43-4.22-1.97-1.91-.54-4.04-.82-6.4-.82-.91,0-1.77.06-2.59.17-.82.11-1.54.31-2.18.58-.64.27-1.14.62-1.5,1.06-.36.43-.54.97-.54,1.6,0,1,.56,1.71,1.67,2.15,1.11.43,2.51.77,4.19,1.02,1.68.25,3.5.5,5.45.75,1.95.25,3.77.67,5.45,1.26,1.68.59,3.07,1.45,4.19,2.59,1.11,1.14,1.67,2.7,1.67,4.7s-.49,3.63-1.46,4.9c-.98,1.27-2.19,2.27-3.64,3-1.45.73-3.05,1.2-4.8,1.43s-3.39.34-4.94.34-3.08-.15-4.6-.44c-1.52-.29-2.91-.64-4.15-1.02-1.25-.39-2.3-.75-3.17-1.09s-1.39-.51-1.57-.51c-.32,0-.59.14-.82.41l-.95-.68,3.13-7.63,1.29.34Z"/>
      <path d="M350.24,62.22c0-.86-.7-1.29-2.11-1.29h-16.62v6.81h10.49c.77,0,1.34-.06,1.7-.17.36-.11.54-.42.54-.92h1.23v7.22h-1.36c.14-.5-.05-.81-.54-.92-.5-.11-1.2-.17-2.11-.17h-9.94v8.04h17.43c.54,0,1-.12,1.36-.37.36-.25.54-.58.54-.99h1.23v7.15h-1.23c0-.41-.18-.64-.54-.68-.36-.05-.82-.07-1.36-.07h-24.99v-1.23c.23,0,.45-.08.68-.24.23-.16.34-.42.34-.78v-25.47c0-.36-.11-.62-.34-.78-.23-.16-.45-.24-.68-.24v-1.23h24.18c1.41,0,2.11-.41,2.11-1.23h1.23v7.56h-1.23Z"/>
      <path d="M420.66,80.95c-.14,0-.26-.01-.38-.03-.11-.02-.24-.03-.37-.03-.27,0-.92.27-1.94.82s-2.32,1.16-3.88,1.84c-1.57.68-3.35,1.27-5.35,1.77-2,.5-4.09.75-6.27.75-2.86,0-5.61-.36-8.24-1.09-2.63-.73-4.96-1.85-6.98-3.37-2.02-1.52-3.62-3.42-4.8-5.69-1.18-2.27-1.77-4.93-1.77-7.97s.59-5.64,1.77-7.93c1.18-2.29,2.78-4.21,4.8-5.75,2.02-1.54,4.35-2.7,6.98-3.47,2.63-.77,5.38-1.16,8.24-1.16,2.32,0,4.42.18,6.3.54,1.88.36,3.53.75,4.94,1.16,1.41.41,2.52.79,3.34,1.16.82.36,1.32.54,1.5.54.23,0,.42-.11.58-.34.16-.23.28-.41.37-.54l1.02.82-5.31,8.24-.68-.48c0-.14-.01-.27-.03-.41-.02-.14-.06-.29-.1-.48-.09-.5-.54-1.01-1.36-1.53-.82-.52-1.83-.99-3.03-1.4-1.2-.41-2.48-.75-3.81-1.02-1.34-.27-2.58-.41-3.71-.41-1.91,0-3.73.27-5.48.82-1.75.54-3.27,1.34-4.56,2.38-1.29,1.04-2.33,2.33-3.1,3.85-.77,1.52-1.16,3.26-1.16,5.21s.39,3.69,1.16,5.21c.77,1.52,1.8,2.8,3.1,3.85,1.29,1.04,2.81,1.84,4.56,2.38,1.75.54,3.58.82,5.48.82,1.45,0,2.97-.17,4.56-.51,1.59-.34,3.04-.77,4.36-1.29,1.32-.52,2.42-1.11,3.3-1.77.89-.66,1.33-1.28,1.33-1.87,0-.32-.09-.59-.27-.82l.95-.54,4.49,7.22-.54.54Z"/>
      <path d="M432.3,84.63c.73,0,1.23-.08,1.5-.24.27-.16.41-.42.41-.78v-25.47c0-.36-.14-.62-.41-.78-.27-.16-.77-.24-1.5-.24v-1.23h10.35v1.23c-1.27,0-1.91.34-1.91,1.02v25.47c0,.68.64,1.02,1.91,1.02v1.23h-10.35v-1.23Z"/>
      <path d="M461.59,84.63c.23,0,.45-.08.68-.24.23-.16.34-.42.34-.78v-22.68h-8.85c-.36,0-.7.09-1.02.27-.32.18-.48.48-.48.89h-1.23v-7.83h1.23c0,.64.16,1.07.48,1.29.32.23.66.34,1.02.34h24.24c.36,0,.7-.11,1.02-.34.32-.23.48-.66.48-1.29h1.23v7.83h-1.23c0-.41-.16-.7-.48-.89-.32-.18-.66-.27-1.02-.27h-8.85v22.68c0,.68.41,1.02,1.23,1.02v1.23h-8.78v-1.23Z"/>
      <path d="M486.99,58.27c-.32-.41-.7-.7-1.16-.89-.45-.18-.89-.27-1.29-.27v-1.23h11.24v1.23c-.23,0-.48.08-.75.24-.27.16-.41.37-.41.65s.09.52.27.75c.18.23.39.5.61.82l6.88,8.99,6.06-8.44c.41-.59.72-1.03.92-1.33.2-.3.31-.58.31-.85,0-.36-.11-.59-.34-.68-.23-.09-.45-.14-.68-.14v-1.23h10.42v1.23c-.54,0-1.15.31-1.8.92-.66.61-1.24,1.24-1.74,1.87l-10.42,13.48v10.22c0,.68.43,1.02,1.29,1.02v1.23h-9.06v-1.23c.82,0,1.23-.34,1.23-1.02v-10.49l-11.58-14.85Z"/>
    </g>
    <g>
      <path d="M202.23,109.47h21.28v3.32h-21.28v-3.32Z"/>
      <path d="M223.51,109.47h21.28v3.32h-21.28v-3.32Z"/>
      <path d="M275.74,98.1c1.36,0,2.6.12,3.7.36,1.11.24,2.06.62,2.85,1.15.79.53,1.4,1.21,1.83,2.04.42.84.64,1.87.64,3.09,0,1.87-.55,3.31-1.66,4.3-1.11.99-2.6,1.66-4.47,2l5.66,8.09c.2.28.43.45.7.51.27.06.52.09.74.09v.77h-7.96v-.77c.26,0,.47-.04.66-.13s.28-.2.28-.34-.06-.3-.17-.49c-.11-.18-.28-.43-.51-.74l-4.68-6.64h-6.09v7.58c0,.26.09.45.28.58.18.13.52.19,1,.19v.77h-7.36v-.77c.82,0,1.23-.26,1.23-.77v-19.32c0-.51-.41-.77-1.23-.77v-.77h14.56ZM274.63,108.06c1.02,0,1.87-.08,2.55-.23.68-.16,1.22-.38,1.62-.66.4-.28.68-.62.85-1,.17-.38.26-.8.26-1.26s-.08-.87-.26-1.26c-.17-.38-.45-.72-.85-1-.4-.28-.94-.5-1.62-.66s-1.53-.23-2.55-.23h-7.36v6.3h7.36Z"/>
      <path d="M301.49,101.51c1.56,0,3.03.2,4.4.6s2.57.99,3.6,1.79c1.02.8,1.83,1.8,2.43,3,.6,1.21.89,2.62.89,4.24s-.3,3.03-.89,4.24c-.6,1.21-1.4,2.21-2.43,3s-2.22,1.37-3.6,1.72c-1.38.36-2.85.53-4.4.53s-3.03-.18-4.41-.53c-1.38-.35-2.57-.93-3.6-1.72s-1.83-1.79-2.43-3c-.6-1.21-.89-2.62-.89-4.24s.3-3.03.89-4.24c.6-1.21,1.4-2.21,2.43-3,1.02-.79,2.22-1.39,3.6-1.79s2.85-.6,4.41-.6ZM301.49,104.66c-.91,0-1.8.15-2.66.45-.87.3-1.64.72-2.32,1.28-.68.55-1.23,1.23-1.64,2.02s-.62,1.7-.62,2.72.21,1.93.62,2.72c.41.8.96,1.47,1.64,2.02.68.55,1.45.98,2.32,1.28.86.3,1.75.45,2.66.45s1.79-.15,2.66-.45c.86-.3,1.64-.72,2.32-1.28.68-.55,1.23-1.23,1.64-2.02.41-.79.62-1.7.62-2.72s-.21-1.93-.62-2.72c-.41-.79-.96-1.47-1.64-2.02-.68-.55-1.45-.98-2.32-1.28-.87-.3-1.75-.45-2.66-.45Z"/>
      <path d="M315.15,119.73c.34-.06.62-.22.83-.49.21-.27.38-.52.49-.74l6.34-13.83c.17-.4.3-.72.41-.96.1-.24.15-.47.15-.7,0-.17-.04-.28-.11-.32-.07-.04-.15-.09-.23-.15v-.77h6.43v.77c-.08.06-.18.1-.28.13-.1.03-.15.14-.15.34,0,.17.06.38.19.62.13.24.26.52.4.83l6.9,14.47c.14.26.3.44.47.55.17.11.35.2.55.26v.77h-6.04v-.64c.14,0,.29-.04.45-.13.16-.09.23-.24.23-.47,0-.17-.03-.33-.09-.47-.06-.14-.13-.33-.21-.55l-1.15-2.43h-9.11l-1.19,2.3c-.11.23-.21.43-.28.62-.07.19-.11.35-.11.49,0,.23.07.37.21.43.14.06.34.09.6.09v.77h-5.7v-.77ZM329.37,112.66l-3.45-7.15-3.02,7.15h6.47Z"/>
      <path d="M342.9,113.98c0,.11,0,.23-.02.36-.01.13-.02.26-.02.41,0,.42.27.82.81,1.17.54.36,1.18.65,1.94.89.75.24,1.5.43,2.26.57.75.14,1.34.21,1.77.21.4,0,.89-.03,1.47-.08s1.16-.18,1.72-.36c.57-.18,1.05-.44,1.45-.77.4-.33.6-.76.6-1.3,0-.62-.35-1.08-1.04-1.36-.7-.28-1.57-.5-2.62-.66-1.05-.15-2.18-.31-3.4-.47s-2.36-.41-3.4-.77c-1.05-.35-1.92-.86-2.62-1.53-.7-.67-1.04-1.61-1.04-2.83,0-1.82.75-3.26,2.26-4.34,1.5-1.08,3.62-1.62,6.34-1.62,1.33,0,2.48.11,3.43.32.95.21,1.75.45,2.41.7.65.26,1.18.49,1.6.7s.72.32.92.32c.23,0,.4-.03.51-.11.11-.07.26-.15.43-.23l.47.47-2.13,4-.77-.26c-.03-.17-.06-.34-.08-.51-.03-.17-.16-.34-.38-.51-.57-.48-1.45-.89-2.64-1.23-1.19-.34-2.53-.51-4-.51-.57,0-1.11.04-1.62.11-.51.07-.96.19-1.36.36-.4.17-.71.39-.94.66-.23.27-.34.6-.34,1,0,.62.35,1.07,1.04,1.34.7.27,1.57.48,2.62.64,1.05.16,2.18.31,3.4.47s2.36.42,3.4.79,1.92.91,2.62,1.62,1.04,1.69,1.04,2.94-.31,2.27-.92,3.06c-.61.8-1.37,1.42-2.28,1.87-.91.45-1.91.75-3,.89-1.09.14-2.12.21-3.09.21s-1.92-.09-2.87-.28c-.95-.18-1.82-.4-2.6-.64-.78-.24-1.44-.47-1.98-.68-.54-.21-.87-.32-.98-.32-.2,0-.37.09-.51.26l-.6-.42,1.96-4.77.81.21Z"/>
      <path d="M369.8,119.73c.14,0,.28-.05.42-.15s.21-.26.21-.49v-14.17h-5.53c-.23,0-.44.06-.64.17-.2.11-.3.3-.3.55h-.77v-4.9h.77c0,.4.1.67.3.81s.41.21.64.21h15.15c.23,0,.44-.07.64-.21.2-.14.3-.41.3-.81h.77v4.9h-.77c0-.26-.1-.44-.3-.55-.2-.11-.41-.17-.64-.17h-5.53v14.17c0,.42.26.64.77.64v.77h-5.49v-.77Z"/>
      <path d="M403.05,105.72c0-.54-.44-.81-1.32-.81h-10.39v4.26h6.55c.48,0,.84-.03,1.06-.11.23-.07.34-.26.34-.57h.77v4.51h-.85c.08-.31-.03-.5-.34-.57-.31-.07-.75-.11-1.32-.11h-6.21v5.02h10.9c.34,0,.62-.08.85-.23s.34-.36.34-.62h.77v4.47h-.77c0-.26-.11-.4-.34-.43-.23-.03-.51-.04-.85-.04h-15.62v-.77c.14,0,.28-.05.42-.15s.21-.26.21-.49v-15.92c0-.23-.07-.39-.21-.49s-.28-.15-.42-.15v-.77h15.11c.88,0,1.32-.26,1.32-.77h.77v4.72h-.77Z"/>
      <path d="M421.86,101.76c2.53,0,4.5.42,5.92,1.26s2.13,2.26,2.13,4.28c0,.77-.14,1.45-.42,2.04-.28.6-.66,1.11-1.13,1.55-.47.44-.99.8-1.55,1.06-.57.27-1.15.48-1.74.62l4.17,6.09c.23.31.48.55.74.7.27.16.56.28.87.36v.77h-6.51v-.77c.37,0,.55-.13.55-.38,0-.28-.21-.72-.64-1.32l-3.36-5.02h-5.92v6.09c0,.23.09.39.28.49.18.1.36.15.53.15v.77h-5.66v-.77c.51,0,.77-.21.77-.64v-15.92c0-.43-.26-.64-.77-.64v-.77h11.75ZM421.77,109.85c2.78,0,4.17-.88,4.17-2.64,0-.71-.33-1.27-1-1.68-.67-.41-1.72-.62-3.17-.62h-6.72v4.94h6.72Z"/>
      <path d="M437.52,113.98c0,.11,0,.23-.02.36-.01.13-.02.26-.02.41,0,.42.27.82.81,1.17.54.36,1.18.65,1.94.89.75.24,1.5.43,2.26.57.75.14,1.34.21,1.77.21.4,0,.89-.03,1.47-.08s1.16-.18,1.72-.36c.57-.18,1.05-.44,1.45-.77.4-.33.6-.76.6-1.3,0-.62-.35-1.08-1.04-1.36-.7-.28-1.57-.5-2.62-.66-1.05-.15-2.18-.31-3.4-.47s-2.36-.41-3.4-.77c-1.05-.35-1.92-.86-2.62-1.53-.7-.67-1.04-1.61-1.04-2.83,0-1.82.75-3.26,2.26-4.34,1.5-1.08,3.62-1.62,6.34-1.62,1.33,0,2.48.11,3.43.32.95.21,1.75.45,2.41.7.65.26,1.18.49,1.6.7s.72.32.92.32c.23,0,.4-.03.51-.11.11-.07.26-.15.43-.23l.47.47-2.13,4-.77-.26c-.03-.17-.06-.34-.08-.51-.03-.17-.16-.34-.38-.51-.57-.48-1.45-.89-2.64-1.23-1.19-.34-2.53-.51-4-.51-.57,0-1.11.04-1.62.11-.51.07-.96.19-1.36.36-.4.17-.71.39-.94.66-.23.27-.34.6-.34,1,0,.62.35,1.07,1.04,1.34.7.27,1.57.48,2.62.64,1.05.16,2.18.31,3.4.47s2.36.42,3.4.79,1.92.91,2.62,1.62,1.04,1.69,1.04,2.94-.31,2.27-.92,3.06c-.61.8-1.37,1.42-2.28,1.87-.91.45-1.91.75-3,.89-1.09.14-2.12.21-3.09.21s-1.92-.09-2.87-.28c-.95-.18-1.82-.4-2.6-.64-.78-.24-1.44-.47-1.98-.68-.54-.21-.87-.32-.98-.32-.2,0-.37.09-.51.26l-.6-.42,1.96-4.77.81.21Z"/>
      <path d="M469.44,109.47h21.28v3.32h-21.28v-3.32Z"/>
      <path d="M490.73,109.47h21.28v3.32h-21.28v-3.32Z"/>
    </g>
  </g>
</svg>